<svg xmlns="http://www.w3.org/2000/svg" xmlns:xlink="http://www.w3.org/1999/xlink" width="102" height="129" viewBox="0 0 102 129">
    <defs>
        <linearGradient id="1nblilm3ha" x1="100%" x2="0%" y1="50%" y2="50%">
            <stop offset="0%" stop-color="#8C32F0"/>
            <stop offset="100%" stop-color="#E73587"/>
        </linearGradient>
        <linearGradient id="voib9tksbb" x1="100%" x2="0%" y1="50%" y2="50%">
            <stop offset="0%" stop-color="#8C32F0"/>
            <stop offset="100%" stop-color="#E73587"/>
        </linearGradient>
        <linearGradient id="yj57xmsa3d" x1="61.382%" x2="50%" y1="13.823%" y2="100%">
            <stop offset="0%" stop-color="#4DA5F8"/>
            <stop offset="100%" stop-color="#002190"/>
        </linearGradient>
        <path id="xbe2dz5ngc" d="M30.406 51.168c-.773.303-1.904.693-3.31.978-.7.148-1.468.286-2.29.362-.82.086-1.693.153-2.6.14-.906.001-1.846-.069-2.798-.193-.95-.13-1.913-.324-2.857-.595-.946-.262-1.87-.616-2.752-1.023-.884-.404-1.712-.894-2.479-1.409-.37-.28-.744-.536-1.083-.822l-.967-.868c-.293-.304-.583-.591-.848-.883-.255-.301-.485-.607-.712-.89-.45-.571-.792-1.143-1.09-1.649-.281-.52-.525-.973-.679-1.353-.31-.765-.464-1.217-.464-1.217s.09.462.221 1.273c.071.404.218.87.334 1.407.19.524.343 1.131.637 1.738.133.31.268.63.46.936.18.312.339.645.57.949.21.315.43.635.698.928.247.308.518.607.813.892.57.593 1.26 1.094 1.963 1.597.728.472 1.488.928 2.307 1.28.799.392 1.64.712 2.48.994.846.261 1.68.536 2.512.724 1.655.412 3.242.677 4.611.88 2.74.386 4.623.506 4.623.506s-1.847.442-4.688.447c-.71.01-1.48-.016-2.293-.08-.813-.066-1.673-.151-2.552-.318-.882-.155-1.793-.348-2.699-.627-.904-.283-1.818-.606-2.7-1.02-.885-.405-1.72-.925-2.519-1.47-.784-.567-1.5-1.212-2.109-1.911-.31-.346-.604-.693-.841-1.074-.264-.36-.474-.742-.67-1.118-.215-.364-.368-.747-.512-1.115-.16-.364-.257-.732-.351-1.085-.228-.693-.272-1.364-.363-1.938-.028-.589-.058-1.099-.04-1.507.059-.82.108-1.288.108-1.288s.383.096 1.04.288c.329.1.729.214 1.18.364.454.138.96.329 1.517.49.556.163 1.157.339 1.782.546.62.215 1.294.39 1.983.593.69.195 1.397.424 2.126.596.728.176 1.458.405 2.204.541.741.145 1.477.36 2.213.451.736.102 1.453.267 2.156.314.703.088 1.38.13 2.027.161.325.032.634.002.939.007.304-.002.603.014.88-.018l.81-.06.727-.1c.45-.084.855-.154 1.173-.256.646-.177.997-.366.997-.366s-.065.073-.206.196c-.144.115-.353.301-.656.473-.297.19-.68.38-1.133.566-.23.086-.476.176-.733.273l-.837.219c-.587.14-1.235.251-1.922.308-.688.054-1.417.109-2.165.059-.754-.008-1.523-.08-2.3-.187-.784-.08-1.552-.28-2.336-.417-.778-.164-1.528-.419-2.28-.62-.757-.188-1.454-.512-2.15-.756-.697-.246-1.354-.525-1.965-.823-.616-.28-1.19-.567-1.717-.83-.533-.25-.98-.546-1.394-.782-.412-.238-.763-.46-1.054-.641-.58-.366-.906-.589-.906-.589s.337.338.884.956c.27.313.644.635 1.016 1.04.404.38.862.81 1.373 1.246.512.44 1.098.869 1.706 1.322l.978.635 1.048.606 1.113.563c.39.161.77.352 1.17.507.802.31 1.619.62 2.469.84.839.253 1.702.43 2.555.603.858.146 1.708.289 2.543.373.833.09 1.645.168 2.422.209.776.033 1.515.061 2.201.074 1.371.013 2.53-.011 3.349-.038l1.294-.056s-.416.236-1.192.542zm2.677-15.45c3.752-3.68 6.001-8.356 6.001-13.449C39.084 10.42 26.93.813 11.94.813c-3.862 0-7.529.646-10.855 1.796l-.759.94v8.228c2.776-1.647 6.212-2.635 9.95-2.635 9.17 0 15.771 5.876 15.771 13.126 0 7.248-6.6 13.124-15.771 13.124-3.738 0-7.174-.987-9.95-2.634v28.385h10.977c2.165.635 4.508.984 6.954.984 11.044 0 19.995-7.076 19.995-15.804 0-4.082-1.958-7.8-5.17-10.605z"/>
    </defs>
    <g fill="none" fill-rule="evenodd">
        <g>
            <g>
                <path fill="#FFF" d="M0 0H100V127H0z" transform="translate(-33 1) translate(34)"/>
                <path fill="url(#1nblilm3ha)" d="M0 121H100V127H0z" transform="translate(-33 1) translate(34)"/>
                <path fill="url(#voib9tksbb)" stroke="#020E35" d="M0 0H100V127H0z" opacity=".149" transform="translate(-33 1) translate(34)"/>
                <path fill="#FFF" d="M41.7 40H73.7V89H41.7z" transform="translate(-33 1) translate(34)"/>
                <g>
                    <path fill="#000" d="M10.917 20.892c2.826 1.777 5.141 1.445 7.393.856 1.614-.422 4.68-.617 4.68-.617V3.55s-15.836.478-21.067 8.965c-3.956 6.416-.583 14.61-.583 14.61s2.588-6.508 4.994-7.466c0 0 1.308.876 2.952 1.698.781.392 1.631-.464 1.631-.464" transform="translate(-33 1) translate(34) translate(18 32)"/>
                    <path fill="#000" d="M22.99 22.382c-.902-.074-1.525.045-2.413.075-2 .068-3.873.436-5.615 1.11-.163.063-.304.09-.496.061-1.125-.17-1.9-1.47-2.42-.765-.18.243-.585-.565-.852-.581-1.84.756-3.635-.994-3.975-1.134-.103.868-.179 1.685-.31 2.5-.06.374.075.683.314 1.012.775 1.064 1.661 2.084 2.636 3.065 1.993 2.005 4.336 3.796 7.104 5.314 2.936 1.242 6.028 1.242 6.028 1.242V22.382" transform="translate(-33 1) translate(34) translate(18 32)"/>
                    <g transform="translate(-33 1) translate(34) translate(18 32) translate(23.405)">
                        <mask id="b0wxg6i4je" fill="#fff">
                            <use xlink:href="#xbe2dz5ngc"/>
                        </mask>
                        <use fill="url(#yj57xmsa3d)" xlink:href="#xbe2dz5ngc"/>
                        <path d="M30.406 51.168c-.773.303-1.904.693-3.31.978-.7.148-1.468.286-2.29.362-.82.086-1.693.153-2.6.14-.906.001-1.846-.069-2.798-.193-.95-.13-1.913-.324-2.857-.595-.946-.262-1.87-.616-2.752-1.023-.884-.404-1.712-.894-2.479-1.409-.37-.28-.744-.536-1.083-.822l-.967-.868c-.293-.304-.583-.591-.848-.883-.255-.301-.485-.607-.712-.89-.45-.571-.792-1.143-1.09-1.649-.281-.52-.525-.973-.679-1.353-.31-.765-.464-1.217-.464-1.217s.09.462.221 1.273c.071.404.218.87.334 1.407.19.524.343 1.131.637 1.738.133.31.268.63.46.936.18.312.339.645.57.949.21.315.43.635.698.928.247.308.518.607.813.892.57.593 1.26 1.094 1.963 1.597.728.472 1.488.928 2.307 1.28.799.392 1.64.712 2.48.994.846.261 1.68.536 2.512.724 1.655.412 3.242.677 4.611.88 2.74.386 4.623.506 4.623.506s-1.847.442-4.688.447c-.71.01-1.48-.016-2.293-.08-.813-.066-1.673-.151-2.552-.318-.882-.155-1.793-.348-2.699-.627-.904-.283-1.818-.606-2.7-1.02-.885-.405-1.72-.925-2.519-1.47-.784-.567-1.5-1.212-2.109-1.911-.31-.346-.604-.693-.841-1.074-.264-.36-.474-.742-.67-1.118-.215-.364-.368-.747-.512-1.115-.16-.364-.257-.732-.351-1.085-.228-.693-.272-1.364-.363-1.938-.028-.589-.058-1.099-.04-1.507.059-.82.108-1.288.108-1.288s.383.096 1.04.288c.329.1.729.214 1.18.364.454.138.96.329 1.517.49.556.163 1.157.339 1.782.546.62.215 1.294.39 1.983.593.69.195 1.397.424 2.126.596.728.176 1.458.405 2.204.541.741.145 1.477.36 2.213.451.736.102 1.453.267 2.156.314.703.088 1.38.13 2.027.161.325.032.634.002.939.007.304-.002.603.014.88-.018l.81-.06.727-.1c.45-.084.855-.154 1.173-.256.646-.177.997-.366.997-.366s-.065.073-.206.196c-.144.115-.353.301-.656.473-.297.19-.68.38-1.133.566-.23.086-.476.176-.733.273l-.837.219c-.587.14-1.235.251-1.922.308-.688.054-1.417.109-2.165.059-.754-.008-1.523-.08-2.3-.187-.784-.08-1.552-.28-2.336-.417-.778-.164-1.528-.419-2.28-.62-.757-.188-1.454-.512-2.15-.756-.697-.246-1.354-.525-1.965-.823-.616-.28-1.19-.567-1.717-.83-.533-.25-.98-.546-1.394-.782-.412-.238-.763-.46-1.054-.641-.58-.366-.906-.589-.906-.589s.337.338.884.956c.27.313.644.635 1.016 1.04.404.38.862.81 1.373 1.246.512.44 1.098.869 1.706 1.322l.978.635 1.048.606 1.113.563c.39.161.77.352 1.17.507.802.31 1.619.62 2.469.84.839.253 1.702.43 2.555.603.858.146 1.708.289 2.543.373.833.09 1.645.168 2.422.209.776.033 1.515.061 2.201.074 1.371.013 2.53-.011 3.349-.038l1.294-.056s-.416.236-1.192.542zm8.678-28.899C39.084 10.42 26.93.813 11.94.813c-3.862 0-7.529.646-10.855 1.796l-.759.94v8.228c2.776-1.647 6.212-2.635 9.95-2.635 9.17 0 15.771 5.876 15.771 13.126 0 7.248-6.6 13.124-15.771 13.124-3.738 0-7.174-.987-9.95-2.634v28.385h10.977c2.165.635 4.508.984 6.954.984 11.044 0 19.995-7.076 19.995-15.804 0-4.082-1.958-7.8-5.17-10.605 3.753-3.68 6.002-8.356 6.002-13.449z" mask="url(#b0wxg6i4je)"/>
                    </g>
                    <path fill="#000" d="M32.653 15.336c1.692 0 3.064 1.285 3.064 2.868 0 1.584-1.372 2.868-3.064 2.868-1.69 0-3.061-1.284-3.061-2.868 0-1.583 1.37-2.868 3.061-2.868zm10.874 6.591c0-4.614-4.01-8.369-8.94-8.369-4.926 0-8.936 3.755-8.936 8.37 0 4.614 4.01 8.37 8.937 8.37 4.929 0 8.939-3.756 8.939-8.37z" transform="translate(-33 1) translate(34) translate(18 32)"/>
                </g>
            </g>
        </g>
    </g>
</svg>
