<svg xmlns="http://www.w3.org/2000/svg" width="261.691" height="77.929" viewBox="0 0 261.691 77.929">
  <g id="ezp" transform="translate(-84 -15)">
    <circle id="Ellipse_218" data-name="Ellipse 218" cx="8.086" cy="8.086" r="8.086" transform="translate(145.961 76.757)" fill="#464646"/>
    <circle id="Ellipse_219" data-name="Ellipse 219" cx="8.086" cy="8.086" r="8.086" transform="translate(161.451 61.368)" fill="#464646"/>
    <circle id="Ellipse_220" data-name="Ellipse 220" cx="8.086" cy="8.086" r="8.086" transform="translate(176.941 45.878)" fill="#464646"/>
    <circle id="Ellipse_221" data-name="Ellipse 221" cx="8.086" cy="8.086" r="8.086" transform="translate(114.98 45.878)" fill="#464646"/>
    <circle id="Ellipse_222" data-name="Ellipse 222" cx="8.086" cy="8.086" r="8.086" transform="translate(130.471 30.49)" fill="#464646"/>
    <circle id="Ellipse_223" data-name="Ellipse 223" cx="8.086" cy="8.086" r="8.086" transform="translate(145.961 15)" fill="#464646"/>
    <circle id="Ellipse_224" data-name="Ellipse 224" cx="8.086" cy="8.086" r="8.086" transform="translate(161.451 30.49)" fill="#464646"/>
    <g id="Group_4309" data-name="Group 4309" transform="translate(-79.309 -45.279)">
      <circle id="Ellipse_22" data-name="Ellipse 22" cx="8.086" cy="8.086" r="8.086" transform="translate(194.289 60.279)" fill="#bb85ff"/>
      <circle id="Ellipse_23" data-name="Ellipse 23" cx="8.086" cy="8.086" r="8.086" transform="translate(178.799 75.667)" fill="#bb85ff"/>
      <circle id="Ellipse_24" data-name="Ellipse 24" cx="8.086" cy="8.086" r="8.086" transform="translate(163.309 91.157)" fill="#bb85ff"/>
      <circle id="Ellipse_25" data-name="Ellipse 25" cx="8.086" cy="8.086" r="8.086" transform="translate(225.269 91.157)" fill="#bb85ff"/>
      <circle id="Ellipse_26" data-name="Ellipse 26" cx="8.086" cy="8.086" r="8.086" transform="translate(209.779 106.545)" fill="#bb85ff"/>
      <circle id="Ellipse_27" data-name="Ellipse 27" cx="8.086" cy="8.086" r="8.086" transform="translate(194.289 122.036)" fill="#bb85ff"/>
      <circle id="Ellipse_28" data-name="Ellipse 28" cx="8.086" cy="8.086" r="8.086" transform="translate(178.799 106.545)" fill="#bb85ff"/>
    </g>
    <text id="EAZY" transform="translate(206.711 50)" fill="#464646" font-size="20" font-family="Raleway-ExtraBold, Raleway" font-weight="800" letter-spacing="0.1em"><tspan x="0" y="0">EAZY</tspan></text>
    <text id="EASE_YOUR_BUSINESS" data-name="EASE YOUR BUSINESS" transform="translate(206.709 88.843)" fill="#464646" font-size="11" font-family="Raleway-ExtraBold, Raleway" font-weight="800" letter-spacing="0.1em"><tspan x="0" y="0">EASE YOUR BUSINESS</tspan></text>
    <text id="PROCURE" transform="translate(205.691 74.483)" fill="#bb85ff" font-size="26" font-family="Raleway-ExtraBold, Raleway" font-weight="800" letter-spacing="0.1em"><tspan x="0" y="0">PROCURE</tspan></text>
  </g>
</svg>
