<svg width="80" height="25" viewBox="0 0 80 25" fill="none" xmlns="http://www.w3.org/2000/svg">
	<path fill-rule="evenodd" clip-rule="evenodd" d="M14.3265 7C16.5419 7 18.3379 8.79598 18.3379 11.0114L18.3379 23.6188L14.3265 23.6188L14.3265 7ZM11.1745 6.99999L11.1745 23.6188L7.16312 23.6188L7.16312 6.99999L11.1745 6.99999ZM4.01141 23.6188L4.01141 6.99999L-1.33514e-05 6.99999L-1.40779e-05 23.6188L4.01141 23.6188Z" fill="black" />
	<path fill-rule="evenodd" clip-rule="evenodd" d="M59.446 4.42383C60.5506 4.42383 61.446 3.5284 61.446 2.42383C61.446 1.31926 60.5506 0.423828 59.446 0.423828C58.3415 0.423828 57.446 1.31926 57.446 2.42383C57.446 3.5284 58.3415 4.42383 59.446 4.42383ZM64.7749 7.28027H53.3137V10.7186H64.7749V7.28027ZM64.7749 13.8701H53.3137V17.3085H64.7749V13.8701ZM53.3137 20.4609H64.7749V23.8993H53.3137V20.4609Z" fill="black" />
	<path fill-rule="evenodd" clip-rule="evenodd" d="M67.6401 7.28027H79.1014V10.7186H67.6401V7.28027ZM67.6401 13.8701H79.1014V17.3085H67.6401V13.8701ZM79.1014 20.4609H67.6401V23.8993H79.1014V20.4609Z" fill="black" />
	<path d="M31.4234 7.22792H35.4446V17.9809C35.4446 19.2237 35.1489 20.3063 34.5574 21.2288C33.9658 22.146 33.141 22.8569 32.0828 23.3615C31.0246 23.8608 29.7954 24.1104 28.3953 24.1104C26.979 24.1104 25.7417 23.8608 24.6835 23.3615C23.6252 22.8569 22.8031 22.146 22.217 21.2288C21.6309 20.3063 21.3379 19.2237 21.3379 17.9809V7.22792H25.3672V17.6309C25.3672 18.2062 25.492 18.719 25.7417 19.1694C25.9967 19.6198 26.3522 19.9726 26.808 20.2276C27.2639 20.4827 27.793 20.6102 28.3953 20.6102C28.9977 20.6102 29.5241 20.4827 29.9745 20.2276C30.4303 19.9726 30.7858 19.6198 31.0409 19.1694C31.2959 18.719 31.4234 18.2062 31.4234 17.6309V7.22792Z" fill="black" />
	<path d="M46.9811 12.2259C46.9269 11.629 46.6854 11.165 46.2567 10.834C45.8334 10.4975 45.2283 10.3293 44.4414 10.3293C43.9205 10.3293 43.4863 10.3971 43.139 10.5328C42.7917 10.6685 42.5312 10.8557 42.3576 11.0945C42.1839 11.3278 42.0944 11.5964 42.089 11.9003C42.0781 12.1499 42.1269 12.3697 42.2355 12.5597C42.3494 12.7496 42.5122 12.9178 42.7239 13.0644C42.9409 13.2054 43.2014 13.3303 43.5053 13.4388C43.8092 13.5473 44.1511 13.6423 44.531 13.7237L45.9636 14.0493C46.7885 14.2284 47.5157 14.4672 48.1452 14.7656C48.7801 15.0641 49.3119 15.4195 49.7406 15.832C50.1748 16.2444 50.5031 16.7192 50.7256 17.2565C50.9481 17.7937 51.062 18.3961 51.0674 19.0636C51.062 20.1164 50.7961 21.0199 50.2697 21.7742C49.7433 22.5285 48.9863 23.1065 47.9986 23.5081C47.0164 23.9096 45.8307 24.1104 44.4414 24.1104C43.0468 24.1104 41.8312 23.9015 40.7947 23.4836C39.7582 23.0658 38.9523 22.4309 38.3771 21.5789C37.8019 20.7269 37.5061 19.6497 37.4898 18.3473H41.3482C41.3808 18.8845 41.5246 19.3322 41.7796 19.6904C42.0347 20.0485 42.3847 20.3199 42.8297 20.5044C43.2801 20.6889 43.8011 20.7811 44.3926 20.7811C44.9353 20.7811 45.3965 20.7079 45.7764 20.5614C46.1617 20.4148 46.4575 20.2113 46.6637 19.9508C46.8699 19.6904 46.9757 19.3919 46.9811 19.0554C46.9757 18.7407 46.878 18.4721 46.6881 18.2496C46.4982 18.0217 46.2051 17.8263 45.809 17.6635C45.4182 17.4953 44.919 17.3406 44.3112 17.1995L42.5692 16.7925C41.1257 16.4615 39.9888 15.9269 39.1585 15.1889C38.3282 14.4454 37.9158 13.4415 37.9212 12.1771C37.9158 11.146 38.1926 10.2425 38.7515 9.46644C39.3105 8.69042 40.0838 8.08534 41.0714 7.65121C42.0591 7.21707 43.1851 7 44.4496 7C45.7411 7 46.8617 7.21978 47.8114 7.65935C48.7665 8.09348 49.5073 8.70399 50.0337 9.49086C50.5601 10.2777 50.8287 11.1894 50.8395 12.2259H46.9811Z" fill="black" />
</svg>
