<svg xmlns="http://www.w3.org/2000/svg" xmlns:xlink="http://www.w3.org/1999/xlink" width="42.044" height="42.044" viewBox="0 0 42.044 42.044"><defs><clipPath id="a"><path d="M0,0V4.672H0V28.03H0V32.7H23.358V28.03H4.672V4.672H28.03V42.044H42.044V37.373H32.7V0Z" fill="none"/></clipPath><linearGradient id="b" y1="1" x2="0.004" y2="1" gradientUnits="objectBoundingBox"><stop offset="0" stop-color="#78f0ca"/><stop offset="1" stop-color="#78f0ca"/></linearGradient><clipPath id="c"><path d="M27.175,50.533l.966-1.074,8.679-7.184V33.527l-9.644-6.352Z" transform="translate(-27.175 -27.175)" fill="none"/></clipPath><linearGradient id="d" x1="-0.484" y1="1.6" x2="-0.467" y2="1.6" gradientUnits="objectBoundingBox"><stop offset="0" stop-color="#4a998a"/><stop offset="0.005" stop-color="#4a998a"/><stop offset="0.561" stop-color="#78f0ca"/><stop offset="1" stop-color="#4b9b8c"/></linearGradient><clipPath id="e"><path d="M27.175,27.175l.966.636,21.158.048,1.25-.684Z" transform="translate(-27.175 -27.175)" fill="none"/></clipPath><linearGradient id="f" x1="-0.2" y1="54.65" x2="-0.193" y2="54.65" xlink:href="#d"/><clipPath id="g"><path d="M27.175,50.533l.966-1.074V27.811l-.966-.636Z" transform="translate(-27.175 -27.175)" fill="none"/></clipPath><linearGradient id="h" x1="-4.838" y1="1.6" x2="-4.66" y2="1.6" xlink:href="#d"/><clipPath id="i"><path d="M28.141,156.8l-.966,1.074H45.861L44.771,156.8Z" transform="translate(-27.175 -156.802)" fill="none"/></clipPath><linearGradient id="j" x1="-10.147" y1="1.278" x2="-10.016" y2="1.278" xlink:href="#d"/><clipPath id="k"><path d="M155.874,27.859v35.8l1.233.887V27.175Z" transform="translate(-155.874 -27.175)" fill="none"/></clipPath><linearGradient id="l" x1="-21.728" y1="1" x2="-21.588" y2="1" xlink:href="#d"/><clipPath id="m"><path d="M190.075,211.072v1.087h9.369l-1.2-1.087Z" transform="translate(-190.075 -211.072)" fill="none"/></clipPath><linearGradient id="n" x1="-3.488" y1="5.296" x2="-3.469" y2="5.296" xlink:href="#d"/></defs><g clip-path="url(#a)"><rect width="42" height="42" transform="translate(0 0)" fill="url(#b)"/></g><g transform="translate(4.672 4.672)"><g clip-path="url(#c)"><rect width="9.644" height="23.358" transform="translate(0)" fill="url(#d)"/></g></g><g transform="translate(4.672 4.672)"><g clip-path="url(#e)"><rect width="23.375" height="0.684" transform="translate(0 0)" fill="url(#f)"/></g></g><g transform="translate(4.672 4.672)"><g clip-path="url(#g)"><rect width="0.966" height="23.358" transform="translate(0 0)" fill="url(#h)"/></g></g><g transform="translate(4.672 26.956)"><g clip-path="url(#i)"><rect width="1.316" height="18.699" transform="matrix(0.013, -1, 1, 0.013, -0.014, 1.074)" fill="url(#j)"/></g></g><g transform="translate(26.796 4.672)"><g clip-path="url(#k)"><rect width="1.233" height="37.373" transform="translate(0 0)" fill="url(#l)"/></g></g><g transform="translate(32.676 36.285)"><g clip-path="url(#m)"><rect width="9.369" height="1.087" fill="url(#n)"/></g></g></svg>