<svg width="150" height="40" viewBox="0 0 150 40" fill="none" xmlns="http://www.w3.org/2000/svg">
<path d="M61.3125 4.71777V12.4678C61.3125 16.1428 59.0125 17.9678 55.9375 17.9678C52.8625 17.9678 50.5625 16.1428 50.5625 12.4678V4.71777H53.2625V12.3178C53.2625 14.5928 54.3875 15.4178 55.9375 15.4178C57.5125 15.4178 58.6125 14.5928 58.6125 12.3178V4.71777H61.3125Z" fill="#313130"/>
<path d="M72.9127 11.317V17.742H70.2627V11.892C70.2627 10.542 69.7627 9.81699 68.3377 9.81699C66.8377 9.81699 66.0377 10.692 66.0377 12.367V17.742H63.3877V7.51699H66.0377V8.91699C66.7877 7.86699 67.8127 7.29199 69.2127 7.29199C71.5377 7.29199 72.9127 8.81699 72.9127 11.317Z" fill="#313130"/>
<path d="M74.3877 12.6176C74.3877 9.59258 76.6377 7.26758 79.7377 7.26758C82.2377 7.26758 84.4377 8.76758 84.8377 11.3926H82.0877C81.7627 10.2676 80.8127 9.74258 79.7127 9.74258C78.0877 9.74258 77.0627 10.9426 77.0627 12.6176C77.0377 14.3176 78.1127 15.4926 79.6877 15.4926C80.7877 15.4926 81.7627 14.9426 82.0627 13.8176H84.8377C84.4377 16.5176 82.1877 17.9426 79.7127 17.9426C76.6377 17.9676 74.3877 15.6676 74.3877 12.6176Z" fill="#313130"/>
<path d="M95.8375 11.317V17.742H93.1875V11.892C93.1875 10.542 92.6625 9.81699 91.2625 9.81699C89.7625 9.81699 88.9625 10.692 88.9625 12.367V17.742H86.3125V3.41699H88.9625V8.91699C89.7125 7.86699 90.7375 7.29199 92.1375 7.29199C94.4375 7.29199 95.8375 8.81699 95.8375 11.317Z" fill="#313130"/>
<path d="M107.863 7.51758L107.838 17.7426H105.188V16.3676C104.488 17.3426 103.413 17.9676 101.988 17.9676C99.3125 17.9676 97.3125 15.7676 97.3125 12.6176C97.3125 9.44258 99.3375 7.26758 101.963 7.26758C103.413 7.26758 104.488 7.94258 105.213 8.91758V7.49258H107.863V7.51758ZM105.188 12.6176C105.188 10.9426 104.062 9.81758 102.562 9.81758C101.062 9.81758 99.9875 10.9426 99.9875 12.6176C99.9875 14.3176 101.112 15.4176 102.562 15.4176C104.062 15.4426 105.188 14.3176 105.188 12.6176Z" fill="#313130"/>
<path d="M112.662 4.64238C112.662 5.54238 111.962 6.21738 111.012 6.21738C110.087 6.21738 109.362 5.54238 109.362 4.64238C109.362 3.74238 110.087 3.06738 111.012 3.06738C111.962 3.06738 112.662 3.71738 112.662 4.64238ZM109.662 7.51738H112.337V17.7424H109.687V7.51738H109.662Z" fill="#313130"/>
<path d="M123.688 11.317V17.742H121.038V11.892C121.038 10.542 120.538 9.81699 119.113 9.81699C117.613 9.81699 116.813 10.692 116.813 12.367V17.742H114.163V7.51699H116.813V8.91699C117.563 7.86699 118.588 7.29199 119.988 7.29199C122.313 7.29199 123.688 8.81699 123.688 11.317Z" fill="#313130"/>
<path d="M135.738 13.317H127.888C128.063 14.967 129.163 15.767 130.538 15.767C131.563 15.767 132.463 15.292 132.813 14.492H135.563C134.788 16.917 132.763 17.967 130.563 17.967C127.363 17.967 125.163 15.692 125.163 12.642C125.163 9.56699 127.388 7.29199 130.513 7.29199C133.888 7.29199 135.988 9.94199 135.738 13.317ZM128.013 11.367H132.913C132.613 10.242 131.788 9.49199 130.488 9.49199C129.188 9.49199 128.363 10.267 128.013 11.367Z" fill="#313130"/>
<path d="M147.688 3.41699V17.742H145.038V16.367C144.338 17.342 143.263 17.967 141.813 17.967C139.163 17.967 137.138 15.767 137.138 12.617C137.138 9.44199 139.163 7.26699 141.788 7.26699C143.238 7.26699 144.313 7.94199 145.038 8.91699V3.41699H147.688ZM145.038 12.617C145.038 10.942 143.913 9.81699 142.413 9.81699C140.913 9.81699 139.838 10.942 139.838 12.617C139.838 14.317 140.963 15.417 142.413 15.417C143.888 15.442 145.038 14.317 145.038 12.617Z" fill="#313130"/>
<path d="M54.6875 30.9926H53.2125V35.6926H50.5625V22.6426H56.1625C58.9625 22.6426 60.6125 24.2926 60.6125 26.8926C60.6125 29.0176 59.5125 30.3176 57.6875 30.7926L61.3375 35.6926H58.0625L54.6875 30.9926ZM53.2125 28.6676H55.8625C57.2625 28.6676 57.9125 27.9926 57.9125 26.9426C57.9125 25.8676 57.2375 25.1926 55.8625 25.1926H53.2125V28.6676Z" fill="#313130"/>
<path d="M72.3127 30.5678C72.3127 33.6678 69.9627 35.9178 66.9627 35.9178C63.9877 35.9178 61.6377 33.6428 61.6377 30.5678C61.6377 27.4678 64.0127 25.2178 66.9627 25.2178C69.9377 25.2178 72.3127 27.4678 72.3127 30.5678ZM64.3127 30.5678C64.3127 32.2678 65.4627 33.3678 66.9627 33.3678C68.4627 33.3678 69.6127 32.2428 69.6127 30.5678C69.6127 28.8928 68.4627 27.7678 66.9627 27.7678C65.4877 27.7428 64.3127 28.8928 64.3127 30.5678Z" fill="#313130"/>
<path d="M84.4124 30.5678C84.4124 33.7178 82.4124 35.9178 79.7374 35.9178C78.2874 35.9178 77.2374 35.2928 76.4874 34.3178V35.6928H73.8374V21.3428H76.4874V26.8678C77.1874 25.8928 78.2874 25.2178 79.7374 25.2178C82.3874 25.2178 84.4124 27.3928 84.4124 30.5678ZM81.7374 30.5678C81.7374 28.8928 80.6374 27.7678 79.1624 27.7678C77.6624 27.7678 76.5374 28.8928 76.5374 30.5678C76.5374 32.2678 77.6624 33.3678 79.1624 33.3678C80.6124 33.3678 81.7374 32.2428 81.7374 30.5678Z" fill="#313130"/>
<path d="M96.3874 30.5678C96.3874 33.6678 94.0374 35.9178 91.0374 35.9178C88.0624 35.9178 85.7124 33.6428 85.7124 30.5678C85.7124 27.4678 88.0874 25.2178 91.0374 25.2178C94.0124 25.2178 96.3874 27.4678 96.3874 30.5678ZM88.4124 30.5678C88.4124 32.2678 89.5624 33.3678 91.0624 33.3678C92.5624 33.3678 93.7124 32.2428 93.7124 30.5678C93.7124 28.8928 92.5624 27.7678 91.0624 27.7678C89.5624 27.7428 88.4124 28.8928 88.4124 30.5678Z" fill="#313130"/>
<path d="M105.763 35.0676C105.213 35.4426 103.938 35.8926 102.713 35.8926C100.663 35.8926 98.8875 34.6676 98.8875 31.7176V27.9426H97.0625V25.4426H98.8875V23.2176L101.537 22.6426V25.4426H105.338V27.9426H101.537V31.5676C101.537 32.7676 102.113 33.4176 103.188 33.4176C103.787 33.4176 104.488 33.2176 105.338 32.9176L105.763 35.0676Z" fill="#313130"/>
<path d="M110.188 22.5672C110.188 23.4672 109.488 24.1422 108.538 24.1422C107.613 24.1422 106.888 23.4672 106.888 22.5672C106.888 21.6672 107.613 20.9922 108.538 20.9922C109.488 20.9922 110.188 21.6422 110.188 22.5672ZM107.188 25.4422H109.838V35.6672H107.188V25.4422Z" fill="#313130"/>
<path d="M111.438 30.5678C111.438 27.5428 113.687 25.2178 116.787 25.2178C119.287 25.2178 121.488 26.7178 121.888 29.3428H119.162C118.837 28.2178 117.887 27.6928 116.787 27.6928C115.162 27.6928 114.138 28.8928 114.138 30.5678C114.113 32.2678 115.188 33.4428 116.763 33.4428C117.863 33.4428 118.838 32.8928 119.138 31.7678H121.863C121.463 34.4678 119.213 35.8928 116.738 35.8928C113.688 35.8928 111.438 33.5928 111.438 30.5678Z" fill="#313130"/>
<path d="M122.888 32.3172H125.588C125.788 33.1422 126.413 33.6922 128.063 33.6922C129.238 33.6922 129.788 33.4172 129.788 32.8672C129.788 32.1672 128.988 32.1172 127.438 31.7422C124.538 31.0422 123.338 30.3922 123.338 28.6422C123.338 26.4922 125.113 25.2422 127.813 25.2422C130.663 25.2422 132.063 26.6172 132.413 28.5172H129.713C129.513 27.8672 128.938 27.4672 127.713 27.4672C126.663 27.4672 126.013 27.7672 126.013 28.3172C126.013 28.7922 126.488 28.8922 127.963 29.2172C130.888 29.8922 132.513 30.4422 132.513 32.4922C132.513 34.7922 130.488 35.8922 127.963 35.8922C125.238 35.8922 123.263 34.5672 122.888 32.3172Z" fill="#313130"/>
<path d="M8.6875 16.168C12.2083 16.168 15.0625 13.3138 15.0625 9.79297C15.0625 6.27215 12.2083 3.41797 8.6875 3.41797C5.16669 3.41797 2.3125 6.27215 2.3125 9.79297C2.3125 13.3138 5.16669 16.168 8.6875 16.168Z" fill="#313130"/>
<path d="M35.4875 28.4429C35.3875 28.1679 35.2625 27.8929 35.1375 27.6429C33.8625 24.8679 32.6125 23.8679 32.6125 20.1929C32.6125 16.6929 33.8875 14.5929 34.1875 14.1179C34.2125 14.0929 34.2375 14.0429 34.2875 13.9929C35.3375 12.7679 35.9375 11.1429 35.8375 9.39294C35.6375 6.26794 33.1125 3.69294 29.9625 3.44294C27.1625 3.21794 24.7125 4.81794 23.6375 7.16794C23.4875 7.49294 23.3875 7.81794 23.2875 8.16794C23.1625 8.64294 23.0375 9.11794 22.8375 9.56794C21.9625 11.7179 20.5125 14.9679 17.3875 18.0929C12.5625 22.9179 10.6375 23.4429 7.43752 24.2929C7.13752 24.3429 6.86252 24.4179 6.58752 24.5179C6.48752 24.5429 6.41252 24.5679 6.31252 24.6179C3.81252 25.6179 2.08752 28.1929 2.33752 31.1179C2.58752 34.0929 5.36252 36.7679 8.33752 36.9179C9.93752 37.0179 11.4125 36.5179 12.5625 35.6179C13.2375 35.0929 13.8125 34.4679 14.2375 33.7179C14.4625 33.3429 14.9625 32.1179 15.1125 31.6929C15.2375 31.2679 15.3875 30.8429 15.5875 30.4429C16.7625 27.8679 17.8375 24.7179 20.8375 22.3929C23.0625 20.2929 24.9125 18.9679 26.5125 18.0679C26.5625 18.9429 26.5875 19.8429 26.5875 20.7179C26.5875 23.5179 25.7625 24.9179 24.7125 26.3429C24.5875 26.4929 24.4625 26.6429 24.3375 26.8179C23.4875 27.9679 23.0375 29.4179 23.1375 30.9679C23.3375 34.1429 25.9125 36.7179 29.0875 36.9179C32.8125 37.1679 35.9125 34.2179 35.9125 30.5429C35.8625 29.8179 35.7375 29.1179 35.4875 28.4429Z" fill="#313130"/>
</svg>
